<svg width="25" height="24" viewBox="0 0 25 24" fill="none" xmlns="http://www.w3.org/2000/svg">
<g id="Check">
<path id="Vector" d="M21.0144 7.56384L10.4144 18.1638C10.3205 18.2585 10.1927 18.3117 10.0594 18.3117C9.92608 18.3117 9.79828 18.2585 9.7044 18.1638L4.3144 12.7738C4.21974 12.68 4.1665 12.5522 4.1665 12.4188C4.1665 12.2855 4.21974 12.1577 4.3144 12.0638L5.0144 11.3638C5.10828 11.2692 5.23608 11.2159 5.3694 11.2159C5.50272 11.2159 5.63052 11.2692 5.7244 11.3638L10.0544 15.6938L19.6044 6.14384C19.8022 5.95205 20.1166 5.95205 20.3144 6.14384L21.0144 6.85384C21.1091 6.94772 21.1623 7.07552 21.1623 7.20884C21.1623 7.34216 21.1091 7.46995 21.0144 7.56384Z" fill="#333333"/>
</g>
</svg>
